<?xml version="1.0" encoding="UTF-8"?><svg id="Layer_1" xmlns="http://www.w3.org/2000/svg" viewBox="0 0 160 160"><defs><style>.cls-1{fill:#f5f5f7;}.cls-1,.cls-2{stroke-width:0px;}.cls-2{fill:#1393ff;}</style></defs><path class="cls-1" d="m46,0h68c3.31,0,6,2.69,6,6v28c0,3.31-2.69,6-6,6h-28c-3.31,0-6,2.69-6,6v28c0,3.31-2.69,6-6,6h-28c-3.31,0-6,2.69-6,6v28c0,3.31-2.69,6-6,6H6c-3.31,0-6-2.69-6-6V46c0-3.31,2.69-6,6-6h28c3.31,0,6-2.69,6-6V6c0-3.31,2.69-6,6-6Z"/><path class="cls-2" d="m120,154v-28c0-3.31,2.69-6,6-6h28c3.31,0,6-2.69,6-6v-28c0-3.31-2.69-6-6-6h-68c-3.31,0-6,2.69-6,6v68c0,3.31,2.69,6,6,6h28c3.31,0,6-2.69,6-6Z"/></svg>